<?xml version="1.0" encoding="UTF-8"?>
<!DOCTYPE svg PUBLIC "-//W3C//DTD SVG 1.1//EN" "http://www.w3.org/Graphics/SVG/1.1/DTD/svg11.dtd">
<svg xmlns="http://www.w3.org/2000/svg" version="1.1" width="150px" height="150px" style="shape-rendering:geometricPrecision; text-rendering:geometricPrecision; image-rendering:optimizeQuality; fill-rule:evenodd; clip-rule:evenodd" xmlns:xlink="http://www.w3.org/1999/xlink">
<g><path style="opacity:1" fill="#242424" d="M 117.5,134.5 C 88.1667,134.5 58.8333,134.5 29.5,134.5C 29.5,131.833 29.5,129.167 29.5,126.5C 28.4682,118.726 31.4682,113.226 38.5,110C 41.6392,109.246 44.6392,108.246 47.5,107C 34.006,88.8349 33.1727,70.0016 45,50.5C 49.9401,43.7234 55.4401,37.3901 61.5,31.5C 57.8187,20.8661 61.4853,14.1995 72.5,11.5C 80.0762,12.1027 84.4095,16.1027 85.5,23.5C 80.908,31.0212 77.0747,39.0212 74,47.5C 71.5272,56.3356 70.3606,65.3356 70.5,74.5C 72.8333,74.5 75.1667,74.5 77.5,74.5C 76.9441,60.9368 79.9441,48.2702 86.5,36.5C 87.0016,35.479 87.6683,35.3123 88.5,36C 108.741,52.4692 114.574,72.9692 106,97.5C 104.204,100.927 102.037,104.094 99.5,107C 103.929,108.257 108.263,109.924 112.5,112C 113.787,113.41 114.954,114.91 116,116.5C 117.361,122.407 117.861,128.407 117.5,134.5 Z"/></g>
<g><path style="opacity:1" fill="#505050" d="M 69.5,16.5 C 72.3404,15.0829 75.007,15.4162 77.5,17.5C 78.4523,19.1123 78.7856,20.6123 78.5,22C 74.3386,32.1563 69.5052,41.9896 64,51.5C 60.3967,60.7801 60.8967,69.7801 65.5,78.5C 70.6523,79.8137 75.6523,79.8137 80.5,78.5C 80.2727,65.9709 82.606,53.9709 87.5,42.5C 88.0016,41.479 88.6683,41.3123 89.5,42C 93.377,45.6079 96.377,49.7745 98.5,54.5C 104.773,77.3726 97.7732,94.706 77.5,106.5C 57.8712,113.688 45.8712,107.355 41.5,87.5C 44.0128,77.4981 47.1795,67.4981 51,57.5C 55.4753,48.192 61.642,40.192 69.5,33.5C 68.675,32.6143 67.675,32.281 66.5,32.5C 65.4706,30.4832 64.4706,28.4832 63.5,26.5C 65.0985,22.4914 67.7652,19.3247 71.5,17C 70.9056,16.5357 70.2389,16.369 69.5,16.5 Z"/></g>
<g><path style="opacity:1" fill="#6f6f6f" d="M 69.5,16.5 C 70.2389,16.369 70.9056,16.5357 71.5,17C 67.7652,19.3247 65.0985,22.4914 63.5,26.5C 63.4856,21.8481 65.4856,18.5148 69.5,16.5 Z"/></g>
<g><path style="opacity:1" fill="#3d3d3d" d="M 77.5,17.5 C 79.6723,18.6612 81.0057,20.4945 81.5,23C 70.5042,39.8118 65.5042,58.3118 66.5,78.5C 71.1667,78.5 75.8333,78.5 80.5,78.5C 75.6523,79.8137 70.6523,79.8137 65.5,78.5C 60.8967,69.7801 60.3967,60.7801 64,51.5C 69.5052,41.9896 74.3386,32.1563 78.5,22C 78.7856,20.6123 78.4523,19.1123 77.5,17.5 Z"/></g>
<g><path style="opacity:1" fill="#6f6f6f" d="M 66.5,32.5 C 67.675,32.281 68.675,32.6143 69.5,33.5C 61.642,40.192 55.4753,48.192 51,57.5C 47.1795,67.4981 44.0128,77.4981 41.5,87.5C 39.8194,79.0292 40.3194,70.6959 43,62.5C 48.7922,50.8775 56.6256,40.8775 66.5,32.5 Z"/></g>
<g><path style="opacity:1" fill="#3d3d3d" d="M 98.5,54.5 C 104.56,62.3967 107.06,71.3967 106,81.5C 105.273,91.451 101.439,99.951 94.5,107C 88.4393,107.648 82.7727,107.481 77.5,106.5C 97.7732,94.706 104.773,77.3726 98.5,54.5 Z"/></g>
<g><path style="opacity:1" fill="#737373" d="M 112.5,118.5 C 86.7773,114.559 60.7773,114.559 34.5,118.5C 36.9359,114.396 40.6026,112.229 45.5,112C 64.1653,110.02 82.8319,110.02 101.5,112C 106.157,112.656 109.824,114.822 112.5,118.5 Z"/></g>
<g><path style="opacity:1" fill="#505050" d="M 112.5,118.5 C 114.425,122.846 114.758,127.179 113.5,131.5C 86.8333,131.5 60.1667,131.5 33.5,131.5C 33.5,128.5 33.5,125.5 33.5,122.5C 33.2322,120.901 33.5655,119.568 34.5,118.5C 60.7773,114.559 86.7773,114.559 112.5,118.5 Z"/></g>
<g><path style="opacity:1" fill="#3d3d3d" d="M 33.5,122.5 C 33.5,125.5 33.5,128.5 33.5,131.5C 60.1667,131.5 86.8333,131.5 113.5,131.5C 86.6718,132.498 59.6718,132.831 32.5,132.5C 32.1872,128.958 32.5206,125.625 33.5,122.5 Z"/></g>
<g><path style="opacity:1" fill="#1e1e1e" d="M 29.5,126.5 C 29.5,129.167 29.5,131.833 29.5,134.5C 58.8333,134.5 88.1667,134.5 117.5,134.5C 88.0047,135.498 58.338,135.831 28.5,135.5C 28.19,132.287 28.5233,129.287 29.5,126.5 Z"/></g>
</svg>
