<?xml version="1.0" encoding="UTF-8"?>
<!DOCTYPE svg PUBLIC "-//W3C//DTD SVG 1.1//EN" "http://www.w3.org/Graphics/SVG/1.1/DTD/svg11.dtd">
<svg xmlns="http://www.w3.org/2000/svg" version="1.1" width="150px" height="150px" style="shape-rendering:geometricPrecision; text-rendering:geometricPrecision; image-rendering:optimizeQuality; fill-rule:evenodd; clip-rule:evenodd" xmlns:xlink="http://www.w3.org/1999/xlink">
<g><path style="opacity:1" fill="#242424" d="M 118.5,123.5 C 118.5,127.167 118.5,130.833 118.5,134.5C 89.5,134.5 60.5,134.5 31.5,134.5C 31.5,129.833 31.5,125.167 31.5,120.5C 32.4492,115.119 35.4492,111.286 40.5,109C 35.6996,103.198 30.533,97.6983 25,92.5C 16.5264,82.892 14.1931,71.892 18,59.5C 23.2018,47.2244 32.5351,41.2244 46,41.5C 51.7083,41.4085 57.2083,42.4085 62.5,44.5C 63.4287,43.3112 63.762,41.9778 63.5,40.5C 60.8333,40.5 58.1667,40.5 55.5,40.5C 55.5,33.8333 55.5,27.1667 55.5,20.5C 58.8333,20.5 62.1667,20.5 65.5,20.5C 65.5,17.1667 65.5,13.8333 65.5,10.5C 71.8333,10.5 78.1667,10.5 84.5,10.5C 84.5,13.8333 84.5,17.1667 84.5,20.5C 87.8333,20.5 91.1667,20.5 94.5,20.5C 94.6662,26.8421 94.4995,33.1754 94,39.5C 91.1997,40.1253 88.3664,40.792 85.5,41.5C 85.9186,42.6721 86.5853,43.6721 87.5,44.5C 97.455,40.8023 107.455,40.6357 117.5,44C 133.725,54.7283 137.558,68.8949 129,86.5C 122.141,93.7382 115.641,101.238 109.5,109C 115.42,112.004 118.42,116.838 118.5,123.5 Z M 50.5,66.5 C 53.643,67.0366 56.643,68.0366 59.5,69.5C 60.4963,75.7985 60.8297,82.1318 60.5,88.5C 53.9348,85.1041 48.7681,80.1041 45,73.5C 45.1012,69.8897 46.9346,67.5564 50.5,66.5 Z M 96.5,66.5 C 102.394,66.2216 104.894,68.8882 104,74.5C 100.522,79.2789 96.689,83.7789 92.5,88C 91.2068,88.49 89.8734,88.6567 88.5,88.5C 88.3338,82.4908 88.5005,76.4908 89,70.5C 91.5138,68.9958 94.0138,67.6624 96.5,66.5 Z"/></g>
<g><path style="opacity:1" fill="#717171" d="M 80.5,15.5 C 77.272,16.4137 73.9387,16.7471 70.5,16.5C 70.5,19.8333 70.5,23.1667 70.5,26.5C 67.1667,26.5 63.8333,26.5 60.5,26.5C 60.6646,29.5184 60.498,32.5184 60,35.5C 59.5014,31.8484 59.3347,28.1817 59.5,24.5C 62.5,24.5 65.5,24.5 68.5,24.5C 68.5,21.1667 68.5,17.8333 68.5,14.5C 72.7016,14.1832 76.7016,14.5166 80.5,15.5 Z"/></g>
<g><path style="opacity:1" fill="#505050" d="M 80.5,15.5 C 80.5,18.5 80.5,21.5 80.5,24.5C 80.3893,25.1174 80.056,25.6174 79.5,26C 83.1516,26.4986 86.8183,26.6653 90.5,26.5C 90.5,29.8333 90.5,33.1667 90.5,36.5C 87.1501,36.335 83.8168,36.5017 80.5,37C 81.4453,41.2782 82.7787,45.4448 84.5,49.5C 97.2084,43.674 109.542,44.174 121.5,51C 122.823,51.8159 123.489,52.9826 123.5,54.5C 127.204,62.7495 127.37,71.0828 124,79.5C 115.328,89.0049 106.495,98.3383 97.5,107.5C 88.0937,107.547 79.5937,107.213 72,106.5C 62.9013,107.593 53.7346,108.093 44.5,108C 38.739,100.235 32.239,93.0687 25,86.5C 24.2086,85.255 23.7086,83.9217 23.5,82.5C 19.3567,63.0951 26.69,50.7618 45.5,45.5C 52.3247,45.3648 58.8247,46.6982 65,49.5C 66.9384,45.4162 68.105,41.0828 68.5,36.5C 65.1667,36.5 61.8333,36.5 58.5,36.5C 58.1832,32.2984 58.5166,28.2984 59.5,24.5C 59.3347,28.1817 59.5014,31.8484 60,35.5C 60.498,32.5184 60.6646,29.5184 60.5,26.5C 63.8333,26.5 67.1667,26.5 70.5,26.5C 70.5,23.1667 70.5,19.8333 70.5,16.5C 73.9387,16.7471 77.272,16.4137 80.5,15.5 Z M 50.5,66.5 C 46.9346,67.5564 45.1012,69.8897 45,73.5C 48.7681,80.1041 53.9348,85.1041 60.5,88.5C 60.8297,82.1318 60.4963,75.7985 59.5,69.5C 56.643,68.0366 53.643,67.0366 50.5,66.5 Z M 96.5,66.5 C 94.0138,67.6624 91.5138,68.9958 89,70.5C 88.5005,76.4908 88.3338,82.4908 88.5,88.5C 89.8734,88.6567 91.2068,88.49 92.5,88C 96.689,83.7789 100.522,79.2789 104,74.5C 104.894,68.8882 102.394,66.2216 96.5,66.5 Z"/></g>
<g><path style="opacity:1" fill="#757575" d="M 80.5,24.5 C 84.3293,23.931 87.6627,24.5977 90.5,26.5C 86.8183,26.6653 83.1516,26.4986 79.5,26C 80.056,25.6174 80.3893,25.1174 80.5,24.5 Z"/></g>
<g><path style="opacity:1" fill="#6d6d6d" d="M 45.5,45.5 C 26.69,50.7618 19.3567,63.0951 23.5,82.5C 22.2101,81.9423 21.3768,80.9423 21,79.5C 17.0499,63.5677 22.5499,52.401 37.5,46C 40.146,45.5026 42.8127,45.3359 45.5,45.5 Z"/></g>
<g><path style="opacity:1" fill="#3e3e3e" d="M 123.5,54.5 C 129.441,61.9095 130.941,70.2428 128,79.5C 126.416,83.6747 124.082,87.3413 121,90.5C 115.28,95.7176 110.113,101.384 105.5,107.5C 102.844,108.614 100.177,108.614 97.5,107.5C 106.495,98.3383 115.328,89.0049 124,79.5C 127.37,71.0828 127.204,62.7495 123.5,54.5 Z"/></g>
<g><path style="opacity:1" fill="#242424" d="M 46.5,63.5 C 53.2061,62.4075 59.0395,64.0742 64,68.5C 64.4997,76.4931 64.6664,84.4931 64.5,92.5C 61.4816,92.6646 58.4816,92.498 55.5,92C 51.4496,87.4049 47.2829,82.9049 43,78.5C 40.2062,72.4076 41.3729,67.4076 46.5,63.5 Z M 50.5,66.5 C 46.9346,67.5564 45.1012,69.8897 45,73.5C 48.7681,80.1041 53.9348,85.1041 60.5,88.5C 60.8297,82.1318 60.4963,75.7985 59.5,69.5C 56.643,68.0366 53.643,67.0366 50.5,66.5 Z"/></g>
<g><path style="opacity:1" fill="#242424" d="M 92.5,63.5 C 96.6372,63.1463 100.637,63.6463 104.5,65C 108.035,67.7071 109.202,71.2071 108,75.5C 103.878,81.2905 99.3782,86.7905 94.5,92C 91.5,92.6667 88.5,92.6667 85.5,92C 84.3526,84.2462 84.1859,76.4128 85,68.5C 87.4795,66.6859 89.9795,65.0192 92.5,63.5 Z M 96.5,66.5 C 94.0138,67.6624 91.5138,68.9958 89,70.5C 88.5005,76.4908 88.3338,82.4908 88.5,88.5C 89.8734,88.6567 91.2068,88.49 92.5,88C 96.689,83.7789 100.522,79.2789 104,74.5C 104.894,68.8882 102.394,66.2216 96.5,66.5 Z"/></g>
<g><path style="opacity:1" fill="#727272" d="M 113.5,118.5 C 100.654,116.043 87.654,115.043 74.5,115.5C 66.5,115.667 58.5,115.833 50.5,116C 45.8633,116.306 41.3633,117.14 37,118.5C 36.6012,118.272 36.4346,117.938 36.5,117.5C 39.04,114.393 42.3733,112.56 46.5,112C 65.496,110.015 84.496,110.015 103.5,112C 108.055,112.435 111.389,114.602 113.5,118.5 Z"/></g>
<g><path style="opacity:1" fill="#505050" d="M 113.5,118.5 C 115.643,122.783 115.976,127.283 114.5,132C 87.8354,132.5 61.1687,132.667 34.5,132.5C 34.3345,128.486 34.5012,124.486 35,120.5C 35.2321,119.263 35.7321,118.263 36.5,117.5C 36.4346,117.938 36.6012,118.272 37,118.5C 41.3633,117.14 45.8633,116.306 50.5,116C 58.5,115.833 66.5,115.667 74.5,115.5C 87.654,115.043 100.654,116.043 113.5,118.5 Z"/></g>
<g><path style="opacity:1" fill="#1e1e1e" d="M 31.5,120.5 C 31.5,125.167 31.5,129.833 31.5,134.5C 60.5,134.5 89.5,134.5 118.5,134.5C 118.5,130.833 118.5,127.167 118.5,123.5C 119.483,127.298 119.817,131.298 119.5,135.5C 89.8333,135.5 60.1667,135.5 30.5,135.5C 30.1795,130.305 30.5128,125.305 31.5,120.5 Z"/></g>
</svg>
