<?xml version="1.0" encoding="UTF-8"?>
<!DOCTYPE svg PUBLIC "-//W3C//DTD SVG 1.1//EN" "http://www.w3.org/Graphics/SVG/1.1/DTD/svg11.dtd">
<svg xmlns="http://www.w3.org/2000/svg" version="1.1" width="150px" height="150px" style="shape-rendering:geometricPrecision; text-rendering:geometricPrecision; image-rendering:optimizeQuality; fill-rule:evenodd; clip-rule:evenodd" xmlns:xlink="http://www.w3.org/1999/xlink">
<g><path style="opacity:1" fill="#242424" d="M 57.5,14.5 C 58.8734,14.3433 60.2068,14.51 61.5,15C 64.8333,18.3333 68.1667,21.6667 71.5,25C 102.017,30.3507 117.684,48.5174 118.5,79.5C 118.477,89.7554 116.477,99.5888 112.5,109C 116.612,110.779 119.778,113.612 122,117.5C 123.304,123.423 123.804,129.423 123.5,135.5C 93.8333,135.5 64.1667,135.5 34.5,135.5C 33.9653,128.627 34.7986,121.96 37,115.5C 39.428,112.402 42.428,110.069 46,108.5C 47.2738,103.286 49.6071,98.6192 53,94.5C 58.6667,89.5 64.3333,84.5 70,79.5C 72.19,77.2172 72.8567,74.5505 72,71.5C 66.0964,77.5349 58.9297,81.0349 50.5,82C 48.8333,84.3333 47.1667,86.6667 45.5,89C 38.8427,90.7617 32.5093,89.7617 26.5,86C 20.918,81.2612 20.0846,75.7612 24,69.5C 32.0095,60.4833 37.6762,50.15 41,38.5C 43.6298,34.8683 46.6298,31.535 50,28.5C 51.4869,24.8835 52.8202,21.2169 54,17.5C 55.1451,16.3636 56.3117,15.3636 57.5,14.5 Z"/></g>
<g><path style="opacity:1" fill="#726c6c" d="M 60.5,19.5 C 61.3761,22.7989 61.5428,26.1322 61,29.5C 57.9908,32.8416 54.6575,35.8416 51,38.5C 47.6425,42.9391 45.6425,47.9391 45,53.5C 39.0146,61.9786 32.5146,69.9786 25.5,77.5C 27.7968,70.3406 31.6301,64.0073 37,58.5C 40.1196,52.3518 42.7862,46.0185 45,39.5C 47.3873,36.6226 50.054,33.9559 53,31.5C 54.5302,27.9099 55.8635,24.2432 57,20.5C 58.0407,18.6885 59.2073,18.3552 60.5,19.5 Z"/></g>
<g><path style="opacity:1" fill="#505050" d="M 60.5,19.5 C 63.9641,22.4625 67.2975,25.6291 70.5,29C 74.9738,30.1198 79.3071,31.2865 83.5,32.5C 105.496,46.4784 110.33,65.1451 98,88.5C 93.5093,93.5044 90.0093,99.1711 87.5,105.5C 80.3447,106.167 73.3447,106.833 66.5,107.5C 61.1554,107.687 55.8221,108.02 50.5,108.5C 51.176,104.813 52.676,101.48 55,98.5C 61.031,92.1345 67.3643,86.1345 74,80.5C 75.122,78.5932 75.9553,76.5932 76.5,74.5C 79.6145,68.1411 80.4478,61.4744 79,54.5C 77.0718,58.0323 74.9052,61.3656 72.5,64.5C 68.5827,70.4211 63.2493,74.4211 56.5,76.5C 53.8776,74.0055 50.8776,73.0055 47.5,73.5C 45.7454,78.0055 43.7454,82.3388 41.5,86.5C 36.9328,86.2562 32.5994,85.0896 28.5,83C 26.84,81.5123 25.84,79.679 25.5,77.5C 32.5146,69.9786 39.0146,61.9786 45,53.5C 45.6425,47.9391 47.6425,42.9391 51,38.5C 54.6575,35.8416 57.9908,32.8416 61,29.5C 61.5428,26.1322 61.3761,22.7989 60.5,19.5 Z"/></g>
<g><path style="opacity:1" fill="#434343" d="M 83.5,32.5 C 97.7455,36.9114 107.245,46.2447 112,60.5C 113.841,67.3358 115.008,74.0024 115.5,80.5C 114.128,89.9845 112.128,99.3178 109.5,108.5C 95.1843,107.653 80.851,107.32 66.5,107.5C 73.3447,106.833 80.3447,106.167 87.5,105.5C 90.0093,99.1711 93.5093,93.5044 98,88.5C 110.33,65.1451 105.496,46.4784 83.5,32.5 Z"/></g>
<g><path style="opacity:1" fill="#262626" d="M 57.5,41.5 C 62.5011,40.6714 64.6678,42.6714 64,47.5C 60.7154,49.1373 57.2154,49.8039 53.5,49.5C 53.7759,46.2814 55.1093,43.6148 57.5,41.5 Z"/></g>
<g><path style="opacity:1" fill="#434343" d="M 76.5,74.5 C 77.2508,70.146 75.9175,66.8127 72.5,64.5C 74.9052,61.3656 77.0718,58.0323 79,54.5C 80.4478,61.4744 79.6145,68.1411 76.5,74.5 Z"/></g>
<g><path style="opacity:1" fill="#424242" d="M 56.5,76.5 C 53.3117,76.6178 50.3117,77.4511 47.5,79C 45.841,81.8437 43.841,84.3437 41.5,86.5C 43.7454,82.3388 45.7454,78.0055 47.5,73.5C 50.8776,73.0055 53.8776,74.0055 56.5,76.5 Z"/></g>
<g><path style="opacity:1" fill="#727272" d="M 117.5,117.5 C 117.565,117.938 117.399,118.272 117,118.5C 112.308,117.087 107.474,116.254 102.5,116C 86.5,115.333 70.5,115.333 54.5,116C 50.0448,116.264 45.7115,117.098 41.5,118.5C 40.8933,118.376 40.56,118.043 40.5,117.5C 42.7996,114.676 45.7996,112.843 49.5,112C 68.8303,110.015 88.1636,110.015 107.5,112C 110.361,112.54 113.028,113.54 115.5,115C 116.381,115.708 117.047,116.542 117.5,117.5 Z"/></g>
<g><path style="opacity:1" fill="#515151" d="M 117.5,117.5 C 118.268,118.263 118.768,119.263 119,120.5C 119.499,124.152 119.665,127.818 119.5,131.5C 92.5,131.5 65.5,131.5 38.5,131.5C 38.3347,127.818 38.5014,124.152 39,120.5C 39.2321,119.263 39.7321,118.263 40.5,117.5C 40.56,118.043 40.8933,118.376 41.5,118.5C 45.7115,117.098 50.0448,116.264 54.5,116C 70.5,115.333 86.5,115.333 102.5,116C 107.474,116.254 112.308,117.087 117,118.5C 117.399,118.272 117.565,117.938 117.5,117.5 Z"/></g>
</svg>
