<?xml version="1.0" encoding="UTF-8"?>
<!DOCTYPE svg PUBLIC "-//W3C//DTD SVG 1.1//EN" "http://www.w3.org/Graphics/SVG/1.1/DTD/svg11.dtd">
<svg xmlns="http://www.w3.org/2000/svg" version="1.1" width="150px" height="150px" style="shape-rendering:geometricPrecision; text-rendering:geometricPrecision; image-rendering:optimizeQuality; fill-rule:evenodd; clip-rule:evenodd" xmlns:xlink="http://www.w3.org/1999/xlink">
<g><path style="opacity:1" fill="#252525" d="M 71.5,32.5 C 88.8254,33.3214 96.6587,42.3214 95,59.5C 94.0272,62.7789 92.5272,65.7789 90.5,68.5C 93.729,70.9416 96.729,73.6082 99.5,76.5C 98.9602,79.6618 97.9602,82.6618 96.5,85.5C 93.5,86.1667 90.5,86.8333 87.5,87.5C 88.523,91.8788 90.3563,95.8788 93,99.5C 99.3548,104.857 105.355,110.523 111,116.5C 113.868,122.51 115.035,128.843 114.5,135.5C 87.8333,135.5 61.1667,135.5 34.5,135.5C 33.9649,128.843 35.1316,122.51 38,116.5C 43.6452,110.523 49.6452,104.857 56,99.5C 58.5034,95.8302 60.3367,91.8302 61.5,87.5C 52.428,87.6745 48.7614,83.3411 50.5,74.5C 53.4735,72.8532 56.1401,70.8532 58.5,68.5C 51.0616,57.1542 52.0616,46.6542 61.5,37C 64.7029,34.9971 68.0363,33.4971 71.5,32.5 Z"/></g>
<g><path style="opacity:1" fill="#515151" d="M 69.5,37.5 C 75.1588,36.1636 80.4921,37.1636 85.5,40.5C 91.8814,54.8486 87.5481,64.3486 72.5,69C 76.1516,69.4986 79.8183,69.6653 83.5,69.5C 84.1667,69.8333 84.8333,70.1667 85.5,70.5C 87.4104,75.0394 86.7438,79.0394 83.5,82.5C 77.5,82.5 71.5,82.5 65.5,82.5C 62.1501,82.665 58.8168,82.4983 55.5,82C 52.8661,79.7067 52.8661,77.54 55.5,75.5C 60.4694,77.8014 63.4694,76.1348 64.5,70.5C 64.6107,69.8826 64.944,69.3826 65.5,69C 61.2377,66.319 58.571,62.4857 57.5,57.5C 59.2324,48.9283 63.8991,42.4283 71.5,38C 70.9056,37.5357 70.2389,37.369 69.5,37.5 Z"/></g>
<g><path style="opacity:1" fill="#727272" d="M 69.5,37.5 C 70.2389,37.369 70.9056,37.5357 71.5,38C 63.8991,42.4283 59.2324,48.9283 57.5,57.5C 56.4327,47.6134 60.4327,40.9468 69.5,37.5 Z"/></g>
<g><path style="opacity:1" fill="#444444" d="M 85.5,40.5 C 92.012,47.2332 93.1787,54.8998 89,63.5C 87.6403,66.0226 85.807,68.0226 83.5,69.5C 79.8183,69.6653 76.1516,69.4986 72.5,69C 87.5481,64.3486 91.8814,54.8486 85.5,40.5 Z"/></g>
<g><path style="opacity:1" fill="#737373" d="M 64.5,70.5 C 63.4694,76.1348 60.4694,77.8014 55.5,75.5C 58.3661,73.5675 61.3661,71.9009 64.5,70.5 Z"/></g>
<g><path style="opacity:1" fill="#434343" d="M 85.5,70.5 C 89.0133,72.757 92.3467,75.257 95.5,78C 95.0969,79.4728 94.4303,80.8061 93.5,82C 90.1832,82.4983 86.8499,82.665 83.5,82.5C 86.7438,79.0394 87.4104,75.0394 85.5,70.5 Z"/></g>
<g><path style="opacity:1" fill="#444444" d="M 65.5,82.5 C 71.5,82.5 77.5,82.5 83.5,82.5C 84.5378,96.5248 91.2045,106.858 103.5,113.5C 98.5522,112.906 93.8855,111.406 89.5,109C 81.0933,102.599 73.2599,95.4325 66,87.5C 65.7216,88.4158 65.2216,89.0825 64.5,89.5C 64.9926,87.1944 65.3259,84.861 65.5,82.5 Z"/></g>
<g><path style="opacity:1" fill="#515151" d="M 103.5,113.5 C 108.574,118.382 110.907,124.382 110.5,131.5C 86.5,131.5 62.5,131.5 38.5,131.5C 38.1984,128.941 38.5318,126.607 39.5,124.5C 39.369,125.239 39.5357,125.906 40,126.5C 44.6805,119.99 50.5138,114.656 57.5,110.5C 60.9335,106.553 62.2668,102.22 61.5,97.5C 62.8916,94.9933 63.8916,92.3267 64.5,89.5C 65.2216,89.0825 65.7216,88.4158 66,87.5C 73.2599,95.4325 81.0933,102.599 89.5,109C 93.8855,111.406 98.5522,112.906 103.5,113.5 Z"/></g>
<g><path style="opacity:1" fill="#737373" d="M 61.5,97.5 C 62.2668,102.22 60.9335,106.553 57.5,110.5C 50.5138,114.656 44.6805,119.99 40,126.5C 39.5357,125.906 39.369,125.239 39.5,124.5C 40.176,120.813 41.676,117.48 44,114.5C 51.5213,110.504 57.3546,104.838 61.5,97.5 Z"/></g>
</svg>
