<?xml version="1.0" encoding="UTF-8"?>
<!DOCTYPE svg PUBLIC "-//W3C//DTD SVG 1.1//EN" "http://www.w3.org/Graphics/SVG/1.1/DTD/svg11.dtd">
<svg xmlns="http://www.w3.org/2000/svg" version="1.1" width="150px" height="150px" style="shape-rendering:geometricPrecision; text-rendering:geometricPrecision; image-rendering:optimizeQuality; fill-rule:evenodd; clip-rule:evenodd" xmlns:xlink="http://www.w3.org/1999/xlink">
<g><path style="opacity:1" fill="#202020" d="M 57.5,14.5 C 71.9071,18.2577 75.5738,26.7577 68.5,40C 70.4695,46.2421 72.6362,52.4088 75,58.5C 77.3638,52.4088 79.5305,46.2421 81.5,40C 74.4722,27.0725 77.9722,18.5725 92,14.5C 103.748,16.9138 108.081,23.9138 105,35.5C 102.993,38.3362 100.826,41.0029 98.5,43.5C 99.1033,51.1615 99.77,58.8282 100.5,66.5C 103.223,64.0658 105.723,61.3991 108,58.5C 105.798,47.5685 110.131,40.9018 121,38.5C 134.614,42.5673 137.781,50.734 130.5,63C 128.624,64.3754 126.624,65.542 124.5,66.5C 118.629,80.4068 112.629,94.2402 106.5,108C 111.525,109.689 115.359,112.856 118,117.5C 119.304,123.423 119.804,129.423 119.5,135.5C 89.8333,135.5 60.1667,135.5 30.5,135.5C 30.1959,129.423 30.6959,123.423 32,117.5C 34.2421,113.081 37.7421,110.414 42.5,109.5C 37.6935,94.8777 32.0268,80.5444 25.5,66.5C 15.3484,61.8498 12.8484,54.5165 18,44.5C 25.3333,36.5 32.6667,36.5 40,44.5C 42.555,48.6059 43.055,52.9393 41.5,57.5C 43.4348,60.938 45.9348,63.938 49,66.5C 50.1336,58.5547 50.967,50.5547 51.5,42.5C 42.0846,35.344 41.0846,27.1773 48.5,18C 51.4588,16.3957 54.4588,15.2291 57.5,14.5 Z"/></g>
<g><path style="opacity:1" fill="#505050" d="M 55.5,19.5 C 58.71,18.442 61.71,19.1087 64.5,21.5C 64.6602,23.1992 64.4935,24.8659 64,26.5C 62.1031,29.1274 60.6031,31.9607 59.5,35C 62.5166,43.5275 66.1833,51.6941 70.5,59.5C 71.6865,63.2098 73.1865,66.8765 75,70.5C 78.3478,59.6207 82.1811,48.9541 86.5,38.5C 84.8076,36.6414 83.3076,34.6414 82,32.5C 81.2042,29.9615 81.3709,27.6282 82.5,25.5C 82.3398,27.1992 82.5065,28.8659 83,30.5C 84.4085,26.1691 86.9085,22.6691 90.5,20C 90.2716,19.6012 89.9382,19.4346 89.5,19.5C 92.1583,18.4773 94.825,18.8106 97.5,20.5C 98.3897,22.7819 98.5564,25.1152 98,27.5C 93.9681,30.8977 92.1348,35.2311 92.5,40.5C 93.2756,50.386 94.6089,60.0527 96.5,69.5C 96.3367,71.8568 96.5034,74.1902 97,76.5C 101.967,70.5315 107.301,64.8648 113,59.5C 113.3,57.9343 112.8,56.601 111.5,55.5C 113.494,51.3155 116.161,47.4821 119.5,44C 119.272,43.6012 118.938,43.4346 118.5,43.5C 121.71,42.442 124.71,43.1087 127.5,45.5C 128.984,48.5839 128.818,51.5839 127,54.5C 124.512,56.7433 121.846,58.7433 119,60.5C 111.773,74.7254 102.607,87.5587 91.5,99C 87.6039,101.775 83.6039,104.275 79.5,106.5C 69.2053,107.324 58.5386,107.824 47.5,108C 41.2042,93.239 35.0375,78.4057 29,63.5C 24.1555,62.8219 20.9888,60.1552 19.5,55.5C 21.4942,51.3155 24.1608,47.4821 27.5,44C 27.2716,43.6012 26.9382,43.4346 26.5,43.5C 28.3469,42.4271 30.3469,42.4271 32.5,43.5C 33.8148,44.667 34.4814,46.167 34.5,48C 33.5446,51.4714 33.3779,54.9714 34,58.5C 36.7663,61.7768 39.933,64.4434 43.5,66.5C 46.4625,69.9641 49.6291,73.2975 53,76.5C 54.2601,64.1867 54.5934,51.8533 54,39.5C 50.6397,37.7669 48.473,35.1003 47.5,31.5C 49.2258,29.0578 50.7258,26.3911 52,23.5C 53.7705,21.9586 54.9371,20.6252 55.5,19.5 Z"/></g>
<g><path style="opacity:1" fill="#737373" d="M 55.5,19.5 C 54.9371,20.6252 53.7705,21.9586 52,23.5C 50.7258,26.3911 49.2258,29.0578 47.5,31.5C 46.7115,25.0522 49.3782,21.0522 55.5,19.5 Z"/></g>
<g><path style="opacity:1" fill="#717171" d="M 89.5,19.5 C 89.9382,19.4346 90.2716,19.6012 90.5,20C 86.9085,22.6691 84.4085,26.1691 83,30.5C 82.5065,28.8659 82.3398,27.1992 82.5,25.5C 83.5993,22.0679 85.9326,20.0679 89.5,19.5 Z"/></g>
<g><path style="opacity:1" fill="#404040" d="M 97.5,20.5 C 102.119,23.6343 103.619,27.9676 102,33.5C 100.967,36.0327 99.1334,37.6994 96.5,38.5C 95.4389,48.8281 95.4389,59.1615 96.5,69.5C 94.6089,60.0527 93.2756,50.386 92.5,40.5C 92.1348,35.2311 93.9681,30.8977 98,27.5C 98.5564,25.1152 98.3897,22.7819 97.5,20.5 Z"/></g>
<g><path style="opacity:1" fill="#404040" d="M 64.5,21.5 C 70.0754,27.2566 69.742,32.7566 63.5,38C 66.3342,45.0025 68.6675,52.1692 70.5,59.5C 66.1833,51.6941 62.5166,43.5275 59.5,35C 60.6031,31.9607 62.1031,29.1274 64,26.5C 64.4935,24.8659 64.6602,23.1992 64.5,21.5 Z"/></g>
<g><path style="opacity:1" fill="#707070" d="M 26.5,43.5 C 26.9382,43.4346 27.2716,43.6012 27.5,44C 24.1608,47.4821 21.4942,51.3155 19.5,55.5C 18.2801,49.257 20.6134,45.257 26.5,43.5 Z"/></g>
<g><path style="opacity:1" fill="#6f6f6f" d="M 118.5,43.5 C 118.938,43.4346 119.272,43.6012 119.5,44C 116.161,47.4821 113.494,51.3155 111.5,55.5C 110.28,49.257 112.613,45.257 118.5,43.5 Z"/></g>
<g><path style="opacity:1" fill="#404040" d="M 32.5,43.5 C 36.6214,45.204 38.9547,48.3707 39.5,53C 38.8333,54.6667 38.1667,56.3333 37.5,58C 38.9273,61.2569 40.9273,64.0903 43.5,66.5C 39.933,64.4434 36.7663,61.7768 34,58.5C 33.3779,54.9714 33.5446,51.4714 34.5,48C 34.4814,46.167 33.8148,44.667 32.5,43.5 Z"/></g>
<g><path style="opacity:1" fill="#424242" d="M 127.5,45.5 C 132.864,53.7366 130.864,59.7366 121.5,63.5C 115.431,78.2074 109.264,92.874 103,107.5C 101.769,108.108 100.436,108.441 99,108.5C 92.165,107.842 85.665,107.175 79.5,106.5C 83.6039,104.275 87.6039,101.775 91.5,99C 102.607,87.5587 111.773,74.7254 119,60.5C 121.846,58.7433 124.512,56.7433 127,54.5C 128.818,51.5839 128.984,48.5839 127.5,45.5 Z"/></g>
<g><path style="opacity:1" fill="#737373" d="M 113.5,118.5 C 108.988,117.051 104.322,116.218 99.5,116C 83.1667,115.333 66.8333,115.333 50.5,116C 45.7251,116.346 41.0584,117.179 36.5,118.5C 37.3589,115.548 39.3589,113.715 42.5,113C 63.8389,109.683 85.1722,109.683 106.5,113C 110.072,113.432 112.405,115.265 113.5,118.5 Z"/></g>
<g><path style="opacity:1" fill="#505050" d="M 113.5,118.5 C 114.268,119.263 114.768,120.263 115,121.5C 115.499,125.152 115.665,128.818 115.5,132.5C 88.5,132.5 61.5,132.5 34.5,132.5C 34.3347,128.818 34.5014,125.152 35,121.5C 35.2321,120.263 35.7321,119.263 36.5,118.5C 41.0584,117.179 45.7251,116.346 50.5,116C 66.8333,115.333 83.1667,115.333 99.5,116C 104.322,116.218 108.988,117.051 113.5,118.5 Z"/></g>
</svg>
