<?xml version="1.0" encoding="UTF-8"?>
<!DOCTYPE svg PUBLIC "-//W3C//DTD SVG 1.1//EN" "http://www.w3.org/Graphics/SVG/1.1/DTD/svg11.dtd">
<svg xmlns="http://www.w3.org/2000/svg" version="1.1" width="150px" height="150px" style="shape-rendering:geometricPrecision; text-rendering:geometricPrecision; image-rendering:optimizeQuality; fill-rule:evenodd; clip-rule:evenodd" xmlns:xlink="http://www.w3.org/1999/xlink">
<g><path style="opacity:1" fill="#252525" d="M 68.5,23.5 C 74.1956,23.447 79.8623,23.7803 85.5,24.5C 86.1667,29.5 86.8333,34.5 87.5,39.5C 88.8333,39.5 90.1667,39.5 91.5,39.5C 92.1667,35.1667 92.8333,30.8333 93.5,26.5C 100.139,25.7776 106.306,27.111 112,30.5C 112.217,38.5616 111.55,46.5616 110,54.5C 108.699,58.3011 106.199,60.9678 102.5,62.5C 102.167,63.6667 101.833,64.8333 101.5,66C 103.373,80.4837 105.04,94.9837 106.5,109.5C 111.262,109.963 114.762,112.296 117,116.5C 118.37,122.742 118.87,129.075 118.5,135.5C 89.1667,135.5 59.8333,135.5 30.5,135.5C 30.1304,129.075 30.6304,122.742 32,116.5C 34.2381,112.296 37.7381,109.963 42.5,109.5C 43.9603,94.9837 45.627,80.4837 47.5,66C 47.1667,64.8333 46.8333,63.6667 46.5,62.5C 42.8014,60.9678 40.3014,58.3011 39,54.5C 37.4496,46.5616 36.7829,38.5616 37,30.5C 42.6942,27.111 48.8609,25.7776 55.5,26.5C 56.1667,30.8333 56.8333,35.1667 57.5,39.5C 58.8333,39.5 60.1667,39.5 61.5,39.5C 62.1667,34.5 62.8333,29.5 63.5,24.5C 65.4147,24.7845 67.0813,24.4511 68.5,23.5 Z"/></g>
<g><path style="opacity:1" fill="#7a7a7a" d="M 74.5,27.5 C 71.5282,29.6411 69.0282,32.3078 67,35.5C 66.51,34.2068 66.3433,32.8734 66.5,31.5C 66.5,30.1667 66.5,28.8333 66.5,27.5C 69.1667,27.5 71.8333,27.5 74.5,27.5 Z"/></g>
<g><path style="opacity:1" fill="#505050" d="M 74.5,27.5 C 76.9201,27.2924 79.2534,27.6258 81.5,28.5C 82.7406,33.4251 83.4073,38.4251 83.5,43.5C 87.1667,43.5 90.8333,43.5 94.5,43.5C 94.322,39.8776 94.9886,36.5443 96.5,33.5C 96.3691,34.3764 96.7025,35.0431 97.5,35.5C 98.6108,33.4478 100.277,32.1145 102.5,31.5C 103.167,31.5 103.833,31.5 104.5,31.5C 103.634,38.2969 102.134,44.9636 100,51.5C 97.9718,54.6922 95.4718,57.3589 92.5,59.5C 78.2715,57.8501 64.1049,58.1834 50,60.5C 47.0135,58.6799 44.5135,56.3466 42.5,53.5C 42.9276,46.4564 44.2609,39.4564 46.5,32.5C 46.0431,31.7025 45.3764,31.3691 44.5,31.5C 46.9479,30.5269 49.6146,30.1936 52.5,30.5C 53.1667,34.8333 53.8333,39.1667 54.5,43.5C 58.1667,43.5 61.8333,43.5 65.5,43.5C 65.1832,39.2984 65.5166,35.2984 66.5,31.5C 66.3433,32.8734 66.51,34.2068 67,35.5C 69.0282,32.3078 71.5282,29.6411 74.5,27.5 Z"/></g>
<g><path style="opacity:1" fill="#7e7e7e" d="M 102.5,31.5 C 100.277,32.1145 98.6108,33.4478 97.5,35.5C 96.7025,35.0431 96.3691,34.3764 96.5,33.5C 96.4142,32.5041 96.7476,31.6708 97.5,31C 99.3869,30.2204 101.054,30.3871 102.5,31.5 Z"/></g>
<g><path style="opacity:1" fill="#7f7f7f" d="M 44.5,31.5 C 45.3764,31.3691 46.0431,31.7025 46.5,32.5C 44.2609,39.4564 42.9276,46.4564 42.5,53.5C 41.3298,46.4824 40.9965,39.4824 41.5,32.5C 42.4168,31.8728 43.4168,31.5394 44.5,31.5 Z"/></g>
<g><path style="opacity:1" fill="#424242" d="M 104.5,31.5 C 105.583,31.5394 106.583,31.8728 107.5,32.5C 108.511,39.9115 108.011,47.2448 106,54.5C 102.774,59.6992 98.2743,61.3658 92.5,59.5C 95.4718,57.3589 97.9718,54.6922 100,51.5C 102.134,44.9636 103.634,38.2969 104.5,31.5 Z"/></g>
<g><path style="opacity:1" fill="#434343" d="M 65.5,62.5 C 76.0526,61.3416 86.7193,61.6749 97.5,63.5C 99.5767,78.4478 101.243,93.4478 102.5,108.5C 99.4299,108.632 96.4299,108.299 93.5,107.5C 93.3942,95.4667 90.5608,84.1334 85,73.5C 80.0397,67.1032 73.5397,63.4365 65.5,62.5 Z"/></g>
<g><path style="opacity:1" fill="#505050" d="M 65.5,62.5 C 73.5397,63.4365 80.0397,67.1032 85,73.5C 90.5608,84.1334 93.3942,95.4667 93.5,107.5C 78.1108,106.041 62.7774,106.374 47.5,108.5C 47.1667,107 46.8333,105.5 46.5,104C 48,91.1667 49.5,78.3333 51,65.5C 51.7724,64.1509 52.9391,63.3176 54.5,63C 58.1516,62.5014 61.8183,62.3347 65.5,62.5 Z"/></g>
<g><path style="opacity:1" fill="#6e6e6e" d="M 112.5,117.5 C 112.44,118.043 112.107,118.376 111.5,118.5C 106.216,117.21 100.883,116.21 95.5,115.5C 81.5,115.5 67.5,115.5 53.5,115.5C 48.1169,116.21 42.7836,117.21 37.5,118.5C 36.8933,118.376 36.56,118.043 36.5,117.5C 38.5084,114.157 41.5084,112.324 45.5,112C 64.8333,110 84.1667,110 103.5,112C 107.391,112.533 110.391,114.366 112.5,117.5 Z"/></g>
<g><path style="opacity:1" fill="#505050" d="M 112.5,117.5 C 114.213,118.635 114.88,120.302 114.5,122.5C 114.5,125.5 114.5,128.5 114.5,131.5C 87.8333,131.5 61.1667,131.5 34.5,131.5C 34.5,128.5 34.5,125.5 34.5,122.5C 34.1201,120.302 34.7868,118.635 36.5,117.5C 36.56,118.043 36.8933,118.376 37.5,118.5C 42.7836,117.21 48.1169,116.21 53.5,115.5C 67.5,115.5 81.5,115.5 95.5,115.5C 100.883,116.21 106.216,117.21 111.5,118.5C 112.107,118.376 112.44,118.043 112.5,117.5 Z"/></g>
<g><path style="opacity:1" fill="#393939" d="M 34.5,122.5 C 34.5,125.5 34.5,128.5 34.5,131.5C 61.1667,131.5 87.8333,131.5 114.5,131.5C 114.5,128.5 114.5,125.5 114.5,122.5C 115.479,125.625 115.813,128.958 115.5,132.5C 88.1667,132.5 60.8333,132.5 33.5,132.5C 33.1872,128.958 33.5206,125.625 34.5,122.5 Z"/></g>
</svg>
