<?xml version="1.0" encoding="UTF-8"?>
<!DOCTYPE svg PUBLIC "-//W3C//DTD SVG 1.1//EN" "http://www.w3.org/Graphics/SVG/1.1/DTD/svg11.dtd">
<svg xmlns="http://www.w3.org/2000/svg" version="1.1" width="150px" height="150px" style="shape-rendering:geometricPrecision; text-rendering:geometricPrecision; image-rendering:optimizeQuality; fill-rule:evenodd; clip-rule:evenodd" xmlns:xlink="http://www.w3.org/1999/xlink">
<g><path style="opacity:1" fill="#454545" d="M 71.5,11.5 C 79.4673,11.7971 84.1339,15.7971 85.5,23.5C 80.908,31.0212 77.0747,39.0212 74,47.5C 71.5272,56.3356 70.3606,65.3356 70.5,74.5C 72.8333,74.5 75.1667,74.5 77.5,74.5C 77.2811,63.4802 79.1144,52.8136 83,42.5C 84.0014,39.8268 85.5014,37.4935 87.5,35.5C 108.537,51.7734 114.703,72.4401 106,97.5C 104.224,100.941 102.057,104.108 99.5,107C 103.929,108.257 108.263,109.924 112.5,112C 113.787,113.41 114.954,114.91 116,116.5C 117.37,122.742 117.87,129.075 117.5,135.5C 87.8333,135.5 58.1667,135.5 28.5,135.5C 28.2827,128.224 29.4494,121.224 32,114.5C 36.4857,110.667 41.6523,108.167 47.5,107C 36.5174,92.9358 34.0174,77.4358 40,60.5C 45.0534,49.7357 52.0534,40.4023 61,32.5C 57.5955,21.9756 61.0955,14.9756 71.5,11.5 Z"/></g>
<g><path style="opacity:1" fill="#f1f1f1" d="M 77.5,17.5 C 77.7662,21.6049 77.2662,25.6049 76,29.5C 70.2508,38.9982 65.5842,48.9982 62,59.5C 61.5752,63.8695 61.9085,68.2028 63,72.5C 63.4238,75.0254 64.5905,77.0254 66.5,78.5C 71.3054,79.4872 76.3054,79.8205 81.5,79.5C 81.5,76.1667 81.5,72.8333 81.5,69.5C 81.2518,59.9844 83.2518,50.9844 87.5,42.5C 88.0016,41.479 88.6683,41.3123 89.5,42C 92.5484,45.2902 95.2151,48.7902 97.5,52.5C 106.193,75.8119 99.5265,93.6453 77.5,106C 71.3193,106.172 65.3193,106.672 59.5,107.5C 57.1432,107.663 54.8098,107.497 52.5,107C 37.0976,87.9376 36.5976,68.4376 51,48.5C 55.8333,42.3333 61.3333,36.8333 67.5,32C 61.0767,24.0353 62.7433,18.5353 72.5,15.5C 74.5566,15.4357 76.2233,16.1024 77.5,17.5 Z"/></g>
<g><path style="opacity:1" fill="#c8c8c8" d="M 77.5,17.5 C 79.5714,18.5719 80.9047,20.2385 81.5,22.5C 70.894,39.5854 65.894,58.2521 66.5,78.5C 64.5905,77.0254 63.4238,75.0254 63,72.5C 61.9085,68.2028 61.5752,63.8695 62,59.5C 65.5842,48.9982 70.2508,38.9982 76,29.5C 77.2662,25.6049 77.7662,21.6049 77.5,17.5 Z"/></g>
<g><path style="opacity:1" fill="#c5c5c5" d="M 97.5,52.5 C 103.437,59.6353 106.437,67.9687 106.5,77.5C 106.495,89.0034 102.495,98.8367 94.5,107C 82.8381,107.5 71.1714,107.667 59.5,107.5C 65.3193,106.672 71.3193,106.172 77.5,106C 99.5265,93.6453 106.193,75.8119 97.5,52.5 Z"/></g>
<g><path style="opacity:1" fill="#adadad" d="M 81.5,69.5 C 81.5,72.8333 81.5,76.1667 81.5,79.5C 76.3054,79.8205 71.3054,79.4872 66.5,78.5C 71.1667,78.5 75.8333,78.5 80.5,78.5C 80.19,75.2869 80.5233,72.2869 81.5,69.5 Z"/></g>
<g><path style="opacity:1" fill="#f3f3f3" d="M 113.5,123.5 C 113.5,126.167 113.5,128.833 113.5,131.5C 86.8333,131.5 60.1667,131.5 33.5,131.5C 33.5,128.167 33.5,124.833 33.5,121.5C 34.4853,117.67 36.8187,114.837 40.5,113C 60.7731,110.106 81.1065,109.773 101.5,112C 108.693,112.696 112.693,116.529 113.5,123.5 Z"/></g>
<g><path style="opacity:1" fill="#9c9c9c" d="M 33.5,121.5 C 33.5,124.833 33.5,128.167 33.5,131.5C 60.1667,131.5 86.8333,131.5 113.5,131.5C 113.5,128.833 113.5,126.167 113.5,123.5C 114.477,126.287 114.81,129.287 114.5,132.5C 87.1667,132.5 59.8333,132.5 32.5,132.5C 32.185,128.629 32.5184,124.962 33.5,121.5 Z"/></g>
</svg>
