<?xml version="1.0" encoding="UTF-8"?>
<!DOCTYPE svg PUBLIC "-//W3C//DTD SVG 1.1//EN" "http://www.w3.org/Graphics/SVG/1.1/DTD/svg11.dtd">
<svg xmlns="http://www.w3.org/2000/svg" version="1.1" width="150px" height="150px" style="shape-rendering:geometricPrecision; text-rendering:geometricPrecision; image-rendering:optimizeQuality; fill-rule:evenodd; clip-rule:evenodd" xmlns:xlink="http://www.w3.org/1999/xlink">
<g><path style="opacity:1" fill="#464646" d="M 65.5,10.5 C 71.8333,10.5 78.1667,10.5 84.5,10.5C 84.5,13.8333 84.5,17.1667 84.5,20.5C 87.8333,20.5 91.1667,20.5 94.5,20.5C 94.6662,26.8421 94.4995,33.1754 94,39.5C 91.1997,40.1253 88.3664,40.792 85.5,41.5C 85.9186,42.6721 86.5853,43.6721 87.5,44.5C 97.4407,40.7661 107.441,40.5995 117.5,44C 129.757,51.3503 134.924,62.1836 133,76.5C 132.226,80.0487 130.893,83.382 129,86.5C 122.113,93.7161 115.613,101.216 109.5,109C 113.365,111.2 116.198,114.367 118,118.5C 119.217,124.101 119.717,129.768 119.5,135.5C 89.8333,135.5 60.1667,135.5 30.5,135.5C 27.8645,124.22 31.1978,115.387 40.5,109C 35.6996,103.198 30.533,97.6983 25,92.5C 14.0195,78.4445 13.6862,64.1112 24,49.5C 35.7958,40.7822 48.6291,39.1155 62.5,44.5C 63.4287,43.3112 63.762,41.9778 63.5,40.5C 60.8333,40.5 58.1667,40.5 55.5,40.5C 55.5,33.8333 55.5,27.1667 55.5,20.5C 58.8333,20.5 62.1667,20.5 65.5,20.5C 65.5,17.1667 65.5,13.8333 65.5,10.5 Z M 50.5,66.5 C 53.643,67.0366 56.643,68.0366 59.5,69.5C 60.4963,75.7985 60.8297,82.1318 60.5,88.5C 53.9706,85.1413 48.804,80.1413 45,73.5C 45.1012,69.8897 46.9346,67.5564 50.5,66.5 Z M 96.5,66.5 C 102.394,66.2216 104.894,68.8882 104,74.5C 100.917,79.5877 97.0833,84.0877 92.5,88C 91.2068,88.49 89.8734,88.6567 88.5,88.5C 88.3338,82.4908 88.5005,76.4908 89,70.5C 91.2552,68.5012 93.7552,67.1679 96.5,66.5 Z"/></g>
<g><path style="opacity:1" fill="#f0f0f0" d="M 123.5,54.5 C 127.204,62.7495 127.37,71.0828 124,79.5C 115.328,89.0049 106.495,98.3383 97.5,107.5C 79.8128,107.47 62.1462,107.637 44.5,108C 38.0396,99.8708 31.2062,92.0374 24,84.5C 16.7358,71.5418 18.5692,60.0418 29.5,50C 36.9041,45.6943 44.9041,44.361 53.5,46C 57.9073,47.0179 62.2407,48.1846 66.5,49.5C 67.0067,45.1405 67.6734,40.8072 68.5,36.5C 65.7131,35.5233 62.7131,35.19 59.5,35.5C 59.5,31.8333 59.5,28.1667 59.5,24.5C 62.5,24.5 65.5,24.5 68.5,24.5C 68.5,21.1667 68.5,17.8333 68.5,14.5C 72.5,14.5 76.5,14.5 80.5,14.5C 80.5,17.8333 80.5,21.1667 80.5,24.5C 83.8333,24.5 87.1667,24.5 90.5,24.5C 90.5,28.5 90.5,32.5 90.5,36.5C 87.1501,36.335 83.8168,36.5017 80.5,37C 81.4453,41.2782 82.7787,45.4448 84.5,49.5C 95.8117,44.4657 107.145,44.299 118.5,49C 121.079,50.0757 122.746,51.909 123.5,54.5 Z M 50.5,66.5 C 46.9346,67.5564 45.1012,69.8897 45,73.5C 48.804,80.1413 53.9706,85.1413 60.5,88.5C 60.8297,82.1318 60.4963,75.7985 59.5,69.5C 56.643,68.0366 53.643,67.0366 50.5,66.5 Z M 96.5,66.5 C 93.7552,67.1679 91.2552,68.5012 89,70.5C 88.5005,76.4908 88.3338,82.4908 88.5,88.5C 89.8734,88.6567 91.2068,88.49 92.5,88C 97.0833,84.0877 100.917,79.5877 104,74.5C 104.894,68.8882 102.394,66.2216 96.5,66.5 Z"/></g>
<g><path style="opacity:1" fill="#ababab" d="M 59.5,24.5 C 59.5,28.1667 59.5,31.8333 59.5,35.5C 62.7131,35.19 65.7131,35.5233 68.5,36.5C 65.1667,36.5 61.8333,36.5 58.5,36.5C 58.1832,32.2984 58.5166,28.2984 59.5,24.5 Z"/></g>
<g><path style="opacity:1" fill="#cacaca" d="M 123.5,54.5 C 126.607,57.04 128.44,60.3733 129,64.5C 130.555,73.9484 128.222,82.2818 122,89.5C 115.947,95.0503 110.447,101.05 105.5,107.5C 102.691,108.8 100.024,108.8 97.5,107.5C 106.495,98.3383 115.328,89.0049 124,79.5C 127.37,71.0828 127.204,62.7495 123.5,54.5 Z"/></g>
<g><path style="opacity:1" fill="#464646" d="M 46.5,63.5 C 53.2061,62.4075 59.0395,64.0742 64,68.5C 64.4997,76.4931 64.6664,84.4931 64.5,92.5C 61.4816,92.6646 58.4816,92.498 55.5,92C 50.9846,87.7852 46.8179,83.2852 43,78.5C 40.0917,72.3207 41.2583,67.3207 46.5,63.5 Z M 50.5,66.5 C 46.9346,67.5564 45.1012,69.8897 45,73.5C 48.804,80.1413 53.9706,85.1413 60.5,88.5C 60.8297,82.1318 60.4963,75.7985 59.5,69.5C 56.643,68.0366 53.643,67.0366 50.5,66.5 Z"/></g>
<g><path style="opacity:1" fill="#454545" d="M 88.5,92.5 C 87.791,91.596 86.791,91.2627 85.5,91.5C 85.5,83.8333 85.5,76.1667 85.5,68.5C 90.215,63.8782 95.8816,62.3782 102.5,64C 109.552,68.3541 110.386,73.8541 105,80.5C 101.297,83.8675 97.964,87.5342 95,91.5C 92.9592,92.4231 90.7925,92.7564 88.5,92.5 Z M 96.5,66.5 C 93.7552,67.1679 91.2552,68.5012 89,70.5C 88.5005,76.4908 88.3338,82.4908 88.5,88.5C 89.8734,88.6567 91.2068,88.49 92.5,88C 97.0833,84.0877 100.917,79.5877 104,74.5C 104.894,68.8882 102.394,66.2216 96.5,66.5 Z"/></g>
<g><path style="opacity:1" fill="#6b6b6b" d="M 85.5,68.5 C 85.5,76.1667 85.5,83.8333 85.5,91.5C 86.791,91.2627 87.791,91.596 88.5,92.5C 87.1667,92.5 85.8333,92.5 84.5,92.5C 84.1743,84.3159 84.5076,76.3159 85.5,68.5 Z"/></g>
<g><path style="opacity:1" fill="#f3f3f3" d="M 115.5,131.5 C 88.5,131.5 61.5,131.5 34.5,131.5C 34.5,128.833 34.5,126.167 34.5,123.5C 35.3158,116.52 39.3158,112.687 46.5,112C 62.4643,110.448 78.4643,110.115 94.5,111C 100.588,111.105 106.255,112.605 111.5,115.5C 115.048,120.184 116.381,125.517 115.5,131.5 Z"/></g>
<g><path style="opacity:1" fill="#989898" d="M 34.5,123.5 C 34.5,126.167 34.5,128.833 34.5,131.5C 61.5,131.5 88.5,131.5 115.5,131.5C 88.3384,132.498 61.0051,132.831 33.5,132.5C 33.19,129.287 33.5233,126.287 34.5,123.5 Z"/></g>
</svg>
