<?xml version="1.0" encoding="UTF-8"?>
<!DOCTYPE svg PUBLIC "-//W3C//DTD SVG 1.1//EN" "http://www.w3.org/Graphics/SVG/1.1/DTD/svg11.dtd">
<svg xmlns="http://www.w3.org/2000/svg" version="1.1" width="150px" height="150px" style="shape-rendering:geometricPrecision; text-rendering:geometricPrecision; image-rendering:optimizeQuality; fill-rule:evenodd; clip-rule:evenodd" xmlns:xlink="http://www.w3.org/1999/xlink">
<g><path style="opacity:1" fill="#494949" d="M 57.5,14.5 C 58.8734,14.3433 60.2068,14.51 61.5,15C 64.8333,18.3333 68.1667,21.6667 71.5,25C 106.208,32.4067 121.708,53.9067 118,89.5C 116.549,96.1398 114.716,102.64 112.5,109C 118.646,111.475 122.146,115.975 123,122.5C 123.499,126.821 123.666,131.154 123.5,135.5C 93.8333,135.5 64.1667,135.5 34.5,135.5C 33.9653,128.627 34.7986,121.96 37,115.5C 39.428,112.402 42.428,110.069 46,108.5C 47.3923,102.786 50.059,97.7863 54,93.5C 59.3333,88.8333 64.6667,84.1667 70,79.5C 72.19,77.2172 72.8567,74.5505 72,71.5C 66.0964,77.5349 58.9297,81.0349 50.5,82C 48.8333,84.3333 47.1667,86.6667 45.5,89C 38.8427,90.7617 32.5093,89.7617 26.5,86C 20.918,81.2612 20.0846,75.7612 24,69.5C 27.6667,64.5 31.3333,59.5 35,54.5C 37.5225,43.7813 42.8559,34.7813 51,27.5C 51.2509,22.0366 53.4176,17.7033 57.5,14.5 Z"/></g>
<g><path style="opacity:1" fill="#f1f1f1" d="M 82.5,31.5 C 104.021,44.2318 109.854,62.2318 100,85.5C 95.2397,91.7678 91.073,98.4344 87.5,105.5C 79.3433,106.167 71.3433,106.833 63.5,107.5C 59.1311,107.467 54.7978,107.8 50.5,108.5C 51.176,104.813 52.676,101.48 55,98.5C 61.031,92.1345 67.3643,86.1345 74,80.5C 75.122,78.5932 75.9553,76.5932 76.5,74.5C 78.2747,69.7427 79.608,64.7427 80.5,59.5C 80.1012,57.8034 79.6012,56.1368 79,54.5C 77.0583,58.0689 74.8916,61.4022 72.5,64.5C 68.5555,70.4563 63.2222,74.4563 56.5,76.5C 54.1619,74.4957 51.4952,73.329 48.5,73C 46.0284,77.4436 43.6951,81.9436 41.5,86.5C 35.2133,86.4366 30.0466,84.1033 26,79.5C 25.3333,77.5 25.3333,75.5 26,73.5C 29.6667,68.5 33.3333,63.5 37,58.5C 40.2517,52.411 42.9184,46.0777 45,39.5C 47.3873,36.6226 50.054,33.9559 53,31.5C 54.7064,27.9651 56.0397,24.2985 57,20.5C 57.6891,19.6433 58.5224,18.9767 59.5,18.5C 63.3181,21.8176 66.9848,25.3176 70.5,29C 74.414,30.2827 78.414,31.1161 82.5,31.5 Z"/></g>
<g><path style="opacity:1" fill="#cacaca" d="M 82.5,31.5 C 107.513,42.1729 118.013,61.1729 114,88.5C 112.494,95.187 110.994,101.854 109.5,108.5C 94.1812,107.686 78.8479,107.352 63.5,107.5C 71.3433,106.833 79.3433,106.167 87.5,105.5C 91.073,98.4344 95.2397,91.7678 100,85.5C 109.854,62.2318 104.021,44.2318 82.5,31.5 Z"/></g>
<g><path style="opacity:1" fill="#4a4a4a" d="M 57.5,41.5 C 62.5011,40.6714 64.6678,42.6714 64,47.5C 60.7568,49.2625 57.2568,49.9292 53.5,49.5C 53.7759,46.2814 55.1093,43.6148 57.5,41.5 Z"/></g>
<g><path style="opacity:1" fill="#c9c9c9" d="M 76.5,74.5 C 77.2508,70.146 75.9175,66.8127 72.5,64.5C 74.8916,61.4022 77.0583,58.0689 79,54.5C 79.6012,56.1368 80.1012,57.8034 80.5,59.5C 79.608,64.7427 78.2747,69.7427 76.5,74.5 Z"/></g>
<g><path style="opacity:1" fill="#c9c9c9" d="M 56.5,76.5 C 53.2065,76.259 50.2065,77.0924 47.5,79C 45.841,81.8437 43.841,84.3437 41.5,86.5C 43.6951,81.9436 46.0284,77.4436 48.5,73C 51.4952,73.329 54.1619,74.4957 56.5,76.5 Z"/></g>
<g><path style="opacity:1" fill="#f3f3f3" d="M 56.5,110.5 C 73.53,110.163 90.53,110.663 107.5,112C 113.661,112.48 117.495,115.647 119,121.5C 119.498,124.817 119.665,128.15 119.5,131.5C 92.5,131.5 65.5,131.5 38.5,131.5C 37.9312,126.223 38.7645,121.223 41,116.5C 45.7513,113.197 50.918,111.197 56.5,110.5 Z"/></g>
</svg>
