<?xml version="1.0" encoding="UTF-8"?>
<!DOCTYPE svg PUBLIC "-//W3C//DTD SVG 1.1//EN" "http://www.w3.org/Graphics/SVG/1.1/DTD/svg11.dtd">
<svg xmlns="http://www.w3.org/2000/svg" version="1.1" width="150px" height="150px" style="shape-rendering:geometricPrecision; text-rendering:geometricPrecision; image-rendering:optimizeQuality; fill-rule:evenodd; clip-rule:evenodd" xmlns:xlink="http://www.w3.org/1999/xlink">
<g><path style="opacity:1" fill="#494949" d="M 71.5,32.5 C 88.8254,33.3214 96.6587,42.3214 95,59.5C 94.0272,62.7789 92.5272,65.7789 90.5,68.5C 93.729,70.9416 96.729,73.6082 99.5,76.5C 98.9602,79.6618 97.9602,82.6618 96.5,85.5C 93.5,86.1667 90.5,86.8333 87.5,87.5C 88.523,91.8788 90.3563,95.8788 93,99.5C 99.3548,104.857 105.355,110.523 111,116.5C 113.868,122.51 115.035,128.843 114.5,135.5C 87.8333,135.5 61.1667,135.5 34.5,135.5C 33.9649,128.843 35.1316,122.51 38,116.5C 43.6452,110.523 49.6452,104.857 56,99.5C 58.5034,95.8302 60.3367,91.8302 61.5,87.5C 52.428,87.6745 48.7614,83.3411 50.5,74.5C 53.4735,72.8532 56.1401,70.8532 58.5,68.5C 51.0616,57.1542 52.0616,46.6542 61.5,37C 64.7029,34.9971 68.0363,33.4971 71.5,32.5 Z"/></g>
<g><path style="opacity:1" fill="#f1f1f1" d="M 85.5,40.5 C 92.0469,52.6272 89.0469,61.7939 76.5,68C 78.8098,68.4966 81.1432,68.6633 83.5,68.5C 84.1667,69.5 84.8333,70.5 85.5,71.5C 88.0708,75.3861 87.7375,79.0527 84.5,82.5C 84.1667,82.5 83.8333,82.5 83.5,82.5C 77.5,82.5 71.5,82.5 65.5,82.5C 62.1501,82.665 58.8168,82.4983 55.5,82C 54.1955,81.196 53.5288,80.0293 53.5,78.5C 57.0196,74.8234 61.0196,71.6567 65.5,69C 57.8859,63.7922 55.3859,56.6255 58,47.5C 64.8146,35.7723 73.9813,33.4389 85.5,40.5 Z"/></g>
<g><path style="opacity:1" fill="#c8c8c8" d="M 85.5,40.5 C 89.7895,43.6725 91.7895,48.0059 91.5,53.5C 92.1858,60.4373 89.5191,65.4373 83.5,68.5C 81.1432,68.6633 78.8098,68.4966 76.5,68C 89.0469,61.7939 92.0469,52.6272 85.5,40.5 Z"/></g>
<g><path style="opacity:1" fill="#cacaca" d="M 85.5,71.5 C 88.4469,72.9734 91.4469,74.4734 94.5,76C 95.6834,78.1551 95.3501,80.1551 93.5,82C 90.5184,82.498 87.5184,82.6646 84.5,82.5C 87.7375,79.0527 88.0708,75.3861 85.5,71.5 Z"/></g>
<g><path style="opacity:1" fill="#cbcbcb" d="M 65.5,82.5 C 71.5,82.5 77.5,82.5 83.5,82.5C 83.8169,88.9517 85.6503,94.9517 89,100.5C 93.0356,104.704 97.2022,108.704 101.5,112.5C 96.9396,111.702 92.6063,110.202 88.5,108C 80.6623,100.995 72.9957,93.8283 65.5,86.5C 65.5,85.1667 65.5,83.8333 65.5,82.5 Z"/></g>
<g><path style="opacity:1" fill="#f2f2f2" d="M 65.5,86.5 C 72.9957,93.8283 80.6623,100.995 88.5,108C 92.6063,110.202 96.9396,111.702 101.5,112.5C 107.738,117.177 110.738,123.51 110.5,131.5C 86.5,131.5 62.5,131.5 38.5,131.5C 38.1828,124.279 40.5162,118.113 45.5,113C 56.2079,107.137 62.8746,98.3035 65.5,86.5 Z"/></g>
</svg>
