<?xml version="1.0" encoding="UTF-8"?>
<!DOCTYPE svg PUBLIC "-//W3C//DTD SVG 1.1//EN" "http://www.w3.org/Graphics/SVG/1.1/DTD/svg11.dtd">
<svg xmlns="http://www.w3.org/2000/svg" version="1.1" width="150px" height="150px" style="shape-rendering:geometricPrecision; text-rendering:geometricPrecision; image-rendering:optimizeQuality; fill-rule:evenodd; clip-rule:evenodd" xmlns:xlink="http://www.w3.org/1999/xlink">
<g><path style="opacity:1" fill="#464646" d="M 57.5,14.5 C 71.9071,18.2577 75.5738,26.7577 68.5,40C 70.4695,46.2421 72.6362,52.4088 75,58.5C 77.3638,52.4088 79.5305,46.2421 81.5,40C 74.4722,27.0725 77.9722,18.5725 92,14.5C 103.748,16.9138 108.081,23.9138 105,35.5C 102.993,38.3362 100.826,41.0029 98.5,43.5C 99.1033,51.1615 99.77,58.8282 100.5,66.5C 103.223,64.0658 105.723,61.3991 108,58.5C 105.798,47.5685 110.131,40.9018 121,38.5C 134.614,42.5673 137.781,50.734 130.5,63C 128.624,64.3754 126.624,65.542 124.5,66.5C 118.629,80.4068 112.629,94.2402 106.5,108C 111.525,109.689 115.359,112.856 118,117.5C 119.304,123.423 119.804,129.423 119.5,135.5C 89.8333,135.5 60.1667,135.5 30.5,135.5C 30.1959,129.423 30.6959,123.423 32,117.5C 34.2421,113.081 37.7421,110.414 42.5,109.5C 37.6935,94.8777 32.0268,80.5444 25.5,66.5C 16.0617,62.2785 13.2284,55.2785 17,45.5C 24.5301,37.172 32.1968,36.8386 40,44.5C 42.555,48.6059 43.055,52.9393 41.5,57.5C 43.4348,60.938 45.9348,63.938 49,66.5C 50.1336,58.5547 50.967,50.5547 51.5,42.5C 42.0846,35.344 41.0846,27.1773 48.5,18C 51.4588,16.3957 54.4588,15.2291 57.5,14.5 Z"/></g>
<g><path style="opacity:1" fill="#f0f0f0" d="M 63.5,20.5 C 65.0471,24.6496 64.2137,28.3163 61,31.5C 60.3333,34.1667 60.3333,36.8333 61,39.5C 63.184,45.2533 66.0174,50.5866 69.5,55.5C 71.202,60.4288 73.0353,65.4288 75,70.5C 78.8385,59.6501 82.6719,48.8167 86.5,38C 79.263,30.4201 80.263,24.0868 89.5,19C 93.1421,17.9302 96.1421,18.7636 98.5,21.5C 98.4142,22.4959 98.7476,23.3292 99.5,24C 98.1572,28.0096 95.9905,31.5096 93,34.5C 92.7894,43.719 93.6227,52.719 95.5,61.5C 95.9992,66.4918 96.4992,71.4918 97,76.5C 102.134,70.3647 107.634,64.5313 113.5,59C 109.099,50.3044 111.599,44.8044 121,42.5C 124.5,42.8579 127,44.5245 128.5,47.5C 128.722,50.3903 128.055,53.057 126.5,55.5C 123.914,57.0426 121.414,58.7093 119,60.5C 111.827,75.345 102.327,88.5117 90.5,100C 86.9934,102.254 83.3267,104.254 79.5,106C 72.654,106.172 65.9874,106.672 59.5,107.5C 55.2251,107.902 51.0585,107.902 47,107.5C 40.7358,92.874 34.5691,78.2074 28.5,63.5C 19.0909,59.6819 17.0909,53.5152 22.5,45C 26.8301,41.5359 30.8301,41.7026 34.5,45.5C 33.9035,49.8316 33.7368,54.1649 34,58.5C 36.4356,61.4468 39.2689,63.7801 42.5,65.5C 45.7684,69.2712 49.2684,72.9378 53,76.5C 54.2943,63.8322 54.4609,51.1656 53.5,38.5C 47.9399,35.8618 46.1066,31.5285 48,25.5C 51.5233,18.503 56.69,16.8364 63.5,20.5 Z"/></g>
<g><path style="opacity:1" fill="#c9c9c9" d="M 63.5,20.5 C 70.0725,26.3804 70.0725,32.3804 63.5,38.5C 65.5074,44.1901 67.5074,49.8568 69.5,55.5C 66.0174,50.5866 63.184,45.2533 61,39.5C 60.3333,36.8333 60.3333,34.1667 61,31.5C 64.2137,28.3163 65.0471,24.6496 63.5,20.5 Z"/></g>
<g><path style="opacity:1" fill="#c8c8c8" d="M 98.5,21.5 C 103.044,25.4444 103.711,30.111 100.5,35.5C 99.1667,36.5 97.8333,37.5 96.5,38.5C 95.5025,46.1378 95.1692,53.8045 95.5,61.5C 93.6227,52.719 92.7894,43.719 93,34.5C 95.9905,31.5096 98.1572,28.0096 99.5,24C 98.7476,23.3292 98.4142,22.4959 98.5,21.5 Z"/></g>
<g><path style="opacity:1" fill="#cbcbcb" d="M 34.5,45.5 C 36.0744,45.9371 37.2411,46.9371 38,48.5C 38.966,52.1177 38.466,55.451 36.5,58.5C 38.5227,60.8528 40.5227,63.1862 42.5,65.5C 39.2689,63.7801 36.4356,61.4468 34,58.5C 33.7368,54.1649 33.9035,49.8316 34.5,45.5 Z"/></g>
<g><path style="opacity:1" fill="#c9c9c9" d="M 128.5,47.5 C 132.356,55.4685 129.856,60.8018 121,63.5C 115.092,78.312 108.925,92.9787 102.5,107.5C 88.2361,107.612 73.9027,107.612 59.5,107.5C 65.9874,106.672 72.654,106.172 79.5,106C 83.3267,104.254 86.9934,102.254 90.5,100C 102.327,88.5117 111.827,75.345 119,60.5C 121.414,58.7093 123.914,57.0426 126.5,55.5C 128.055,53.057 128.722,50.3903 128.5,47.5 Z"/></g>
<g><path style="opacity:1" fill="#eeeeee" d="M 52.5,110.5 C 66.1707,110.333 79.8374,110.5 93.5,111C 98.9586,111.358 104.292,112.358 109.5,114C 112.381,115.251 114.214,117.417 115,120.5C 115.499,124.486 115.666,128.486 115.5,132.5C 88.5,132.5 61.5,132.5 34.5,132.5C 33.8386,126.827 34.6719,121.494 37,116.5C 38.5793,114.959 40.4127,113.792 42.5,113C 46.0899,112.689 49.4233,111.856 52.5,110.5 Z"/></g>
</svg>
