<?xml version="1.0" encoding="UTF-8"?>
<!DOCTYPE svg PUBLIC "-//W3C//DTD SVG 1.1//EN" "http://www.w3.org/Graphics/SVG/1.1/DTD/svg11.dtd">
<svg xmlns="http://www.w3.org/2000/svg" version="1.1" width="150px" height="150px" style="shape-rendering:geometricPrecision; text-rendering:geometricPrecision; image-rendering:optimizeQuality; fill-rule:evenodd; clip-rule:evenodd" xmlns:xlink="http://www.w3.org/1999/xlink">
<g><path style="opacity:1" fill="#464646" d="M 68.5,23.5 C 74.1956,23.447 79.8623,23.7803 85.5,24.5C 86.1667,29.5 86.8333,34.5 87.5,39.5C 88.8333,39.5 90.1667,39.5 91.5,39.5C 92.1667,35.1667 92.8333,30.8333 93.5,26.5C 100.139,25.7776 106.306,27.111 112,30.5C 112.217,38.5616 111.55,46.5616 110,54.5C 108.39,58.4435 105.723,61.4435 102,63.5C 103.167,78.8358 104.667,94.1691 106.5,109.5C 111.262,109.963 114.762,112.296 117,116.5C 118.37,122.742 118.87,129.075 118.5,135.5C 89.1667,135.5 59.8333,135.5 30.5,135.5C 30.1304,129.075 30.6304,122.742 32,116.5C 34.2381,112.296 37.7381,109.963 42.5,109.5C 44.3335,94.1691 45.8335,78.8358 47,63.5C 43.2771,61.4435 40.6104,58.4435 39,54.5C 37.4496,46.5616 36.7829,38.5616 37,30.5C 42.6942,27.111 48.8609,25.7776 55.5,26.5C 56.1667,30.8333 56.8333,35.1667 57.5,39.5C 58.8333,39.5 60.1667,39.5 61.5,39.5C 62.1667,34.5 62.8333,29.5 63.5,24.5C 65.4147,24.7845 67.0813,24.4511 68.5,23.5 Z"/></g>
<g><path style="opacity:1" fill="#f0f0f0" d="M 104.5,31.5 C 103.703,38.3186 102.203,44.9853 100,51.5C 97.9718,54.6922 95.4718,57.3589 92.5,59.5C 78.6162,58.0024 64.7828,58.3358 51,60.5C 46.3201,59.1535 43.3201,56.1535 42,51.5C 40.7634,45.1594 40.5967,38.8261 41.5,32.5C 44.95,30.7758 48.6166,30.1091 52.5,30.5C 53.1667,34.8333 53.8333,39.1667 54.5,43.5C 58.1667,43.5 61.8333,43.5 65.5,43.5C 65.5688,38.1463 65.9022,32.813 66.5,27.5C 71.5111,27.3341 76.5111,27.5007 81.5,28C 83.1182,33.0039 83.7849,38.1706 83.5,43.5C 87.1667,43.5 90.8333,43.5 94.5,43.5C 95.1667,39.1667 95.8333,34.8333 96.5,30.5C 99.2788,30.2786 101.946,30.612 104.5,31.5 Z"/></g>
<g><path style="opacity:1" fill="#c9c9c9" d="M 104.5,31.5 C 106.844,31.5062 108.178,32.6729 108.5,35C 107.779,40.8092 107.279,46.6426 107,52.5C 104.114,59.0275 99.2802,61.3608 92.5,59.5C 95.4718,57.3589 97.9718,54.6922 100,51.5C 102.203,44.9853 103.703,38.3186 104.5,31.5 Z"/></g>
<g><path style="opacity:1" fill="#f0f0f0" d="M 66.5,62.5 C 78.6503,65.1483 86.4836,72.4816 90,84.5C 92.2514,92.0078 93.4181,99.6745 93.5,107.5C 77.8121,107.265 62.1454,107.598 46.5,108.5C 47.7054,93.4457 49.3721,78.4457 51.5,63.5C 56.4635,62.746 61.4635,62.4126 66.5,62.5 Z"/></g>
<g><path style="opacity:1" fill="#cbcbcb" d="M 66.5,62.5 C 68.9779,61.8359 71.6445,61.5025 74.5,61.5C 82.1794,62.0851 89.8461,62.7518 97.5,63.5C 99.3859,78.4731 101.053,93.4731 102.5,108.5C 99.4824,108.296 96.4824,107.963 93.5,107.5C 93.4181,99.6745 92.2514,92.0078 90,84.5C 86.4836,72.4816 78.6503,65.1483 66.5,62.5 Z"/></g>
<g><path style="opacity:1" fill="#eeeeee" d="M 53.5,110.5 C 67.504,110.333 81.504,110.5 95.5,111C 109.968,110.464 116.468,117.297 115,131.5C 88.2388,132.661 61.4055,132.828 34.5,132C 32.2614,123.94 34.5947,117.607 41.5,113C 45.6653,112.295 49.6653,111.461 53.5,110.5 Z"/></g>
</svg>
